# AST/ASF file generated using VICON BodyLanguage
# -----------------------------------------------
:version 1.10
:name VICON
:units
  mass 1.0
  length 0.45
  angle deg
:documentation
   .ast/.asf automatically generated from VICON data using
   VICON BodyBuilder and BodyLanguage model FoxedUp or BRILLIANT.MOD
:root
   order TX TY TZ RX RY RZ
   axis XYZ
   position 0 0 0  
   orientation 0 0 0 
:bonedata
  begin
     id 1 
     name lhipjoint
     direction 0.661853 -0.702389 0.261917 
     length 2.64193 
     axis 0 0 0  XYZ
  end
  begin
     id 2 
     name lfemur
     direction 0.34202 -0.939693 0  
     length 7.01722  
     axis 0 0 20  XYZ
    dof rx ry rz
    limits (-160.0 20.0)
           (-70.0 70.0)
           (-60.0 70.0)
  end
  begin
     id 3 
     name ltibia
     direction 0.34202 -0.939693 0   
     length 8.25008   
     axis 0 0 20   XYZ
    dof rx
    limits (-10.0 170.0)
  end
  begin
     id 4 
     name lfoot
     direction 0.0709916 -0.195048 0.978221   
     length 2.31941   
     axis -90 7.62852e-016 20   XYZ
    dof rx rz
    limits (-45.0 90.0)
           (-70.0 20.0)
  end
  begin
     id 5 
     name ltoes
     direction 1.53586e-011 -4.22017e-011 1   
     length 1.16486   
     axis -90 7.62852e-016 20   XYZ
    dof rx
    limits (-90.0 20.0)
  end
  begin
     id 6 
     name rhipjoint
     direction -0.638185 -0.721362 0.268992   
     length 2.57244  
     axis 0 0 0  XYZ 
  end
  begin
     id 7 
     name rfemur
     direction -0.34202 -0.939693 0   
     length 7.07017   
     axis 0 0 -20   XYZ
    dof rx ry rz
    limits (-160.0 20.0)
           (-70.0 70.0)
           (-70.0 60.0)
  end
  begin
     id 8 
     name rtibia
     direction -0.34202 -0.939693 0   
     length 8.20386   
     axis 0 0 -20   XYZ
    dof rx
    limits (-10.0 170.0)
 end
 begin
     id 9 
     name rfoot
     direction -0.0822429 -0.225961 0.970658   
     length 2.32215  
     axis -90 -7.62852e-016 -20   XYZ
    dof rx rz
    limits (-45.0 90.0)
           (-20.0 70.0)
  end
  begin
     id 10 
     name rtoes
     direction -1.53597e-011 -4.21689e-011 1   
     length 1.16333   
     axis -90 -7.62852e-016 -20   XYZ
    dof rx
    limits (-90.0 20.0)
  end
  begin
     id 11 
     name lowerback
     direction -0.0131557 0.998589 -0.0514484   
     length 2.14993   
     axis 0 0 0   XYZ
    dof rx ry rz
    limits (-20.0 45.0)
           (-30.0 30.0)
           (-30.0 30.0)
  end
  begin
     id 12 
     name upperback
     direction -0.000776481 0.999993 0.00352685   
     length 2.15301   
     axis 0 0 0   XYZ
    dof rx ry rz
    limits (-20.0 45.0)
           (-30.0 30.0)
           (-30.0 30.0)
  end
  begin
     id 13 
     name thorax
     direction 0.00438186 0.999609 0.0276143   
     length 2.15424   
     axis 0 0 0   XYZ
    dof rx ry rz
    limits (-20.0 45.0)
           (-30.0 30.0)
           (-30.0 30.0)
  end
  begin
     id 14 
     name lowerneck
     direction -0.0488006 0.998094 0.0377807   
     length 1.90481   
     axis 0 0 0   XYZ
    dof rx ry rz
    limits (-20.0 45.0)
           (-30.0 30.0)
           (-30.0 30.0)
  end
  begin
     id 15 
     name upperneck
     direction 0.0443769 0.990702 -0.12861   
     length 1.91305   
     axis 0 0 0   XYZ
    dof rx ry rz
    limits (-20.0 45.0)
           (-30.0 30.0)
           (-30.0 30.0)
  end
  begin
     id 16
     name head
     direction 0.0165599 0.998647 -0.0492982  
     length 1.92369  
     axis 0 0 0   XYZ
    dof rx ry rz
    limits (-20.0 45.0)
           (-30.0 30.0)
           (-30.0 30.0)
  end
  begin
     id 17 
     name lclavicle
     direction 0.911936 0.410197 -0.0105506  
     length 3.52622  
     axis 0 0 0   XYZ
    dof ry rz
    limits (-20.0 10.0)
           (0.0 20.0)
  end
  begin
     id 18 
     name lhumerus
     direction 1 -4.48974e-011 -2.48591e-028   
     length 5.47651   
     axis 180 -30 -90   XYZ
    dof rx ry rz
    limits (-60.0 90.0)
           (-90.0 90.0)
           (-90.0 90.0)
  end
  begin
     id 19
     name lradius
     direction 1 -4.48938e-011 -4.40099e-027   
     length 3.09058   
     axis 180 -30 -90   XYZ
    dof rx
    limits (-10.0 170.0)
  end
  begin
     id 20
     name lwrist
     direction 1 -4.49042e-011 -2.99852e-027   
     length 1.54529   
     axis 1.95339e-015 90 90   XYZ
    dof ry
    limits (-180.0 0.0)
 end
  begin
     id 21 
     name lhand
     direction 1 -4.48815e-011 -5.98193e-027   
     length 0.771611   
     axis 3.82337e-015 90 90   XYZ
    dof rx rz
    limits (-90.0 90.0)
           (-45.0 45.0)
  end
  begin
     id 22 
     name lfingers
     direction 1 -4.49034e-011 -1.1993e-026   
     length 0.622093   
     axis 7.64668e-015 90 90   XYZ
    dof rx
    limits (0.0 90.0)
  end
  begin
     id 23
     name lthumb
     direction 0.707107 -6.34867e-011 0.707107   
     length 0.893204   
     axis -90 45 -1.62303e-014   XYZ
    dof rx rz
    limits (-45.0 45.0)
           (-45.0 45.0)
  end
  begin
     id 24 
     name rclavicle
     direction -0.93442 0.355634 -0.0195692   
     length 3.62463  
     axis 0 0 0   XYZ 
    dof ry rz
    limits (-10.0 20.0)
           (-20.0 0.0)
  end
  begin
     id 25 
     name rhumerus
     direction -1 -4.48957e-011 -1.19147e-027  
     length 5.14182   
     axis 180 30 90   XYZ
    dof rx ry rz
    limits (-90.0 60.0)
           (-90.0 90.0)
           (-90.0 90.0)
  end
  begin
     id 26 
     name rradius
     direction -1 -4.48952e-011 -3.81062e-027   
     length 3.35565   
     axis 180 30 90   XYZ
    dof rx
    limits (-10.0 170.0)
  end
  begin
     id 27 
     name rwrist
     direction -1 -4.48973e-011 -2.99621e-027   
     length 1.67782   
     axis 1.95339e-015 -90 -90   XYZ
    dof ry
    limits (-180.0 0.0)
  end
  begin
     id 28
     name rhand
     direction -1 -4.48895e-011 -5.98727e-027   
     length 0.801042   
     axis 3.82337e-015 -90 -90   XYZ
    dof rx rz
    limits (-90.0 90.0)
           (-45.0 45.0)
  end
  begin
     id 29
     name rfingers
     direction -1 -4.49065e-011 -1.19972e-026   
     length 0.645821   
     axis 7.64668e-015 -90 -90   XYZ
    dof rx
    limits (0.0 90.0)
  end
  begin
     id 30
     name rthumb
     direction -0.707107 -6.34957e-011 0.707107   
     length 0.927273   
     axis -90 -45 1.62303e-014   XYZ
    dof rx rz
    limits (-45.0 45.0)
           (-45.0 45.0)
  end
:hierarchy
  begin
    root lhipjoint rhipjoint lowerback
    lhipjoint lfemur
    lfemur ltibia
    ltibia lfoot
    lfoot ltoes
    rhipjoint rfemur
    rfemur rtibia
    rtibia rfoot
    rfoot rtoes
    lowerback upperback
    upperback thorax
    thorax lowerneck lclavicle rclavicle
    lowerneck upperneck
    upperneck head
    lclavicle lhumerus
    lhumerus lradius
    lradius lwrist
    lwrist lhand lthumb
    lhand lfingers
    rclavicle rhumerus
    rhumerus rradius
    rradius rwrist
    rwrist rhand rthumb
    rhand rfingers
  end

#!OML:ASF E:\Style4\Style4.ASF
:FULLY-SPECIFIED
:DEGREES
99
root -0.00832573 17.9776 -0.987183 1.22729 -1.20957 1.64179
lowerback 4.48664 2.40575 -0.983892
upperback 1.19786 3.16026 0.0843774
thorax -1.33958 1.57979 0.46017
lowerneck -4.31341 -4.85271 -6.26928
upperneck 10.251 -6.36907 3.43718
head 4.08219 -3.21111 1.74649
rclavicle -2.80038e-014 1.98785e-015
rhumerus -50.73 21.0196 -98.2793
rradius 93.8985
rwrist -26.6436
rhand -26.2013 32.5658
rfingers 7.12502
rthumb 0.351371 2.5863
lclavicle -2.80038e-014 1.98785e-015
lhumerus -51.7352 -30.6296 101.809
lradius 96.5984
lwrist 17.354
lhand -13.8452 18.2692
lfingers 7.12502
lthumb 12.2784 47.8887
rfemur -9.24264 5.29278 16.9433
rtibia 25.5491
rfoot -16.4441 -13.4554
rtoes -11.3684
lfemur -7.50243 -3.56373 -20.5666
ltibia 23.0832
lfoot -16.942 10.7774
ltoes -15.7674
100
root -0.00678169 17.9783 -0.985941 1.28192 -1.13254 1.67456
lowerback 4.42381 2.36848 -0.973507
upperback 1.16963 3.1115 0.0673447
thorax -1.33121 1.55553 0.441835
lowerneck -4.30653 -4.85696 -6.29592
upperneck 10.2359 -6.3743 3.4515
head 4.07806 -3.21402 1.75511
rclavicle 3.70485e-014 -9.93923e-015
rhumerus -50.6759 21.0992 -98.2683
rradius 93.8787
rwrist -26.7035
rhand -26.2358 32.4867
rfingers 7.12502
rthumb 0.318002 2.50719
lclavicle 3.70485e-014 -9.93923e-015
lhumerus -51.783 -30.624 101.851
lradius 96.7151
lwrist 17.6207
lhand -13.7059 18.3373
lfingers 7.12502
lthumb 12.4127 47.9488
rfemur -9.31182 5.21331 16.8964
rtibia 25.5683
rfoot -16.4233 -13.465
rtoes -11.6065
lfemur -7.5693 -3.65334 -20.6078
ltibia 23.0636
lfoot -16.8422 10.8343
ltoes -15.948
101
root -0.00911517 17.9789 -0.990464 1.29345 -1.04685 1.73452
lowerback 4.48559 2.35539 -1.0145
upperback 1.13492 3.09084 0.0371643
thorax -1.40147 1.54562 0.431249
lowerneck -4.29691 -4.87247 -6.26898
upperneck 10.2322 -6.39784 3.45043
head 4.07556 -3.22476 1.74943
rclavicle 3.27995e-015 -4.96962e-015
rhumerus -50.6522 21.0928 -98.2459
rradius 93.8923
rwrist -26.8176
rhand -26.2691 32.4291
rfingers 7.12502
rthumb 0.285821 2.44954
lclavicle 3.27995e-015 -4.96962e-015
lhumerus -51.8605 -30.701 101.92
lradius 96.8165
lwrist 17.9329
lhand -13.9263 18.347
lfingers 7.12502
lthumb 12.2001 47.9712
rfemur -9.33576 5.20333 16.8399
rtibia 25.5815
rfoot -16.4462 -13.5113
rtoes -11.4732
lfemur -7.61066 -3.6984 -20.6577
ltibia 23.0546
lfoot -16.8126 10.778
ltoes -16.0296
102
root -0.0127567 17.9782 -0.990797 1.26226 -1.03681 1.7604
lowerback 4.53631 2.3706 -1.03267
upperback 1.1267 3.10927 0.0174309
thorax -1.43836 1.55498 0.417597
lowerneck -4.29676 -4.8903 -6.23874
upperneck 10.2462 -6.42365 3.441
head 4.07976 -3.23686 1.74013
rclavicle 2.71093e-014 -1.19271e-015
rhumerus -50.6294 21.0538 -98.2195
rradius 93.9063
rwrist -26.9415
rhand -26.3314 32.4074
rfingers 7.12502
rthumb 0.225649 2.4278
lclavicle 2.71093e-014 -1.19271e-015
lhumerus -51.8943 -30.7654 101.943
lradius 96.8817
lwrist 18.0767
lhand -14.0297 18.3603
lfingers 7.12502
lthumb 12.1005 47.9904
rfemur -9.29142 5.21968 16.8294
rtibia 25.5955
rfoot -16.4959 -13.5255
rtoes -11.2977
lfemur -7.55839 -3.67451 -20.6703
ltibia 23.0288
lfoot -16.832 10.6891
ltoes -15.9949
